<svg t="1628756877234" class="icon" viewBox="0 0 1024 1024" version="1.1" xmlns="http://www.w3.org/2000/svg" p-id="1095" width="280" height="280"><path d="M863.91466667 728.17777777c-3.64088889 0-7.28177778-0.68266667-10.92266667-2.16177778l-30.15111111-12.51555555c-14.56355555-6.03022222-21.39022222-22.64177778-15.36-37.20533333 6.03022222-14.56355555 22.64177778-21.39022222 37.20533333-15.36l30.15111111 12.51555555c14.56355555 6.03022222 21.39022222 22.64177778 15.36 37.20533333-4.55111111 10.92266667-15.13244445 17.52177778-26.28266666 17.52177778z m-704.17066667 0c-11.15022222 0-21.73155555-6.59911111-26.28266667-17.52177778-6.03022222-14.56355555 0.91022222-31.17511111 15.36-37.20533333l30.15111112-12.51555555c14.56355555-6.03022222 31.17511111 0.91022222 37.20533333 15.36 6.03022222 14.56355555-0.91022222 31.17511111-15.36 37.20533333l-30.15111111 12.51555555c-3.64088889 1.47911111-7.28177778 2.16177778-10.92266667 2.16177778zM893.15555555 584.13511111h-32.65422222c-15.70133333 0-28.44444445-12.74311111-28.44444444-28.44444445s12.74311111-28.44444445 28.44444444-28.44444445H893.15555555c15.70133333 0 28.44444445 12.74311111 28.44444445 28.44444445s-12.74311111 28.44444445-28.44444445 28.44444445z m-729.99822222 0h-32.65422222c-15.70133333 0-28.44444445-12.74311111-28.44444444-28.44444445s12.74311111-28.44444445 28.44444444-28.44444445h32.65422222c15.70133333 0 28.44444445 12.74311111 28.44444445 28.44444445s-12.74311111 28.44444445-28.44444445 28.44444445z m672.42666667-129.93422223c-11.15022222 0-21.73155555-6.59911111-26.28266667-17.52177777-6.03022222-14.56355555 0.91022222-31.17511111 15.36-37.20533334l30.15111112-12.51555556c14.56355555-6.03022222 31.17511111 0.91022222 37.20533333 15.36 6.03022222 14.56355555-0.91022222 31.17511111-15.36 37.20533334l-30.15111111 12.51555556c-3.64088889 1.47911111-7.28177778 2.16177778-10.92266667 2.16177777z m-647.50933333 0c-3.64088889 0-7.28177778-0.68266667-10.92266667-2.16177777l-30.15111111-12.51555556c-14.56355555-6.03022222-21.39022222-22.64177778-15.36-37.20533334s22.64177778-21.39022222 37.20533333-15.36l30.15111111 12.51555556c14.56355555 6.03022222 21.39022222 22.64177778 15.36 37.20533334-4.55111111 10.92266667-15.13244445 17.52177778-26.28266666 17.52177777zM758.89777778 335.75822221c-7.28177778 0-14.56355555-2.73066667-20.13866667-8.30577777-11.15022222-11.15022222-11.15022222-29.12711111 0-40.27733333l23.09688889-23.0968889c11.15022222-11.15022222 29.12711111-11.15022222 40.27733333 0 11.15022222 11.15022222 11.15022222 29.12711111 0 40.27733334l-23.09688888 23.09688889c-5.57511111 5.57511111-12.85688889 8.30577778-20.13866667 8.30577777z m-494.25066667 0c-7.28177778 0-14.56355555-2.73066667-20.13866666-8.30577777L221.52533333 304.35555555c-11.15022222-11.15022222-11.15022222-29.12711111 0-40.27733334 11.15022222-11.15022222 29.12711111-11.15022222 40.27733334 0l23.09688888 23.0968889c11.15022222 11.15022222 11.15022222 29.12711111 0 40.27733333-5.68888889 5.57511111-12.97066667 8.30577778-20.25244444 8.30577777z m377.856-76.45866666c-3.64088889 0-7.28177778-0.68266667-10.92266666-2.16177778-14.56355555-6.03022222-21.39022222-22.64177778-15.36-37.20533333l12.51555555-30.15111111c6.03022222-14.56355555 22.64177778-21.39022222 37.20533333-15.36 14.56355555 6.03022222 21.39022222 22.64177778 15.36 37.20533333l-12.51555555 30.15111111c-4.55111111 10.80888889-15.13244445 17.52177778-26.28266667 17.52177778z m-261.34755556 0c-11.15022222 0-21.73155555-6.59911111-26.28266666-17.52177778l-12.51555556-30.15111111c-6.03022222-14.56355555 0.91022222-31.17511111 15.36-37.20533333 14.56355555-6.03022222 31.17511111 0.91022222 37.20533334 15.36l12.51555555 30.15111111c6.03022222 14.56355555-0.91022222 31.17511111-15.36 37.20533333-3.64088889 1.36533333-7.28177778 2.16177778-10.92266667 2.16177778z m133.12-25.25866667c-15.70133333 0-28.44444445-12.74311111-28.44444444-28.44444444v-32.65422223c0-15.70133333 12.74311111-28.44444445 28.44444444-28.44444444s28.44444445 12.74311111 28.44444445 28.44444444v32.65422223c0 15.70133333-12.74311111 28.44444445-28.44444445 28.44444444zM512 656.38399999c-55.97866667 0-101.48977778-45.51111111-101.48977778-101.48977778s45.51111111-101.48977778 101.48977778-101.48977777 101.48977778 45.51111111 101.48977778 101.48977777-45.51111111 101.48977778-101.48977778 101.48977778z" p-id="1096"></path><path d="M179.88266667 926.83377777c-10.24 0-20.36622222-3.86844445-28.10311112-11.71911111-46.76266667-46.76266667-83.51288889-101.26222222-109.22666666-161.90577778C15.92888889 690.40355555 2.50311111 623.61599999 2.50311111 554.89422221S15.92888889 419.38488888 42.55288889 356.57955555c25.71377778-60.64355555 62.35022222-115.14311111 109.22666666-161.90577778 46.76266667-46.76266667 101.26222222-83.51288889 161.90577778-109.22666666C376.60444445 58.82311111 443.27822222 45.39733333 512.11377778 45.39733333c68.72177778 0 135.50933333 13.42577778 198.31466667 40.04977778 60.64355555 25.71377778 115.14311111 62.35022222 161.90577777 109.22666666 46.76266667 46.76266667 83.51288889 101.26222222 109.22666667 161.90577778 26.624 62.80533333 40.04977778 129.59288889 40.04977778 198.31466666 0 68.72177778-13.42577778 135.50933333-40.04977778 198.31466667-25.6 60.64355555-62.35022222 115.14311111-109.11288889 161.90577778-15.58755555 15.58755555-40.73244445 15.58755555-56.32 0-15.58755555-15.58755555-15.58755555-40.73244445 0-56.32 81.12355555-81.23733333 125.83822222-189.09866667 125.83822222-303.90044445 0-236.99911111-192.85333333-429.85244445-429.85244444-429.85244444S82.26133333 317.89511111 82.26133333 554.89422221c0 114.80177778 44.71466667 222.77688889 125.952 304.01422223 15.58755555 15.58755555 15.58755555 40.73244445 0 56.32-7.85066667 7.73688889-18.09066667 11.60533333-28.33066666 11.60533333z" p-id="1097"></path><path d="M693.47555555 368.52622221c-0.79644445 0-1.70666667 0.34133333-2.5031111 0.91022223l-219.47733334 92.50133333 133.23377778 134.37155556 91.93244444-221.07022222c2.38933333-3.072-0.22755555-6.71288889-3.18577778-6.7128889z" p-id="1098"></path></svg>
